<?xml version="1.0" encoding="utf-8"?>
<!-- Generator: Adobe Illustrator 22.1.0, SVG Export Plug-In . SVG Version: 6.00 Build 0)  -->
<svg version="1.1" id="Layer_1" xmlns="http://www.w3.org/2000/svg" xmlns:xlink="http://www.w3.org/1999/xlink" x="0px" y="0px"
	 viewBox="0 0 45 45" style="enable-background:new 0 0 45 45;" xml:space="preserve">
<g>
	<path d="M31.9,17.8c-3.6,0.4-7.3,3.3-8.7,6.8l0,1.4c3.2,0.1,6.4,0.9,8.8,2.1c1-0.5,4.4-2.2,5.4-4.8c0.4-1,0.4-2.1-0.1-3.2
		C35.8,17.9,33.6,17.6,31.9,17.8z"/>
	<path d="M21.8,26l0-1.4c-1.5-3.6-5.7-6.7-9.5-6.9c-1.5-0.1-3.5,0.3-4.5,2.4c-1.9,4.3,3,7.3,4.3,8C14.6,26.8,18.2,26.1,21.8,26z"/>
	<path d="M39.1,19.1c-1.7-2.8-4.6-4.2-7.9-3.9c-1.7,0.2-3.3,0.8-4.7,1.8c0.1-1.1,0.1-2.1-0.3-2.8c0-0.1-1-2.4-2.9-2.9V8.8H25
		c0.4,0,0.8-0.3,0.8-0.8S25.4,7.3,25,7.3h-1.8V6c0-0.4-0.3-0.8-0.8-0.8S21.8,5.6,21.8,6v1.3H20c-0.4,0-0.8,0.3-0.8,0.8
		s0.3,0.8,0.8,0.8h1.8v2.6c-2,0.5-2.9,2.8-2.9,2.8c-0.5,0.9-0.5,2.1-0.2,3.4c-2-1.5-4.3-2.4-6.6-2.4c0,0,0,0,0,0c-2.8,0-5,1.4-6.2,4
		c-1.4,2.8-0.9,5.6,1.5,8.1c1.3,1.4,2.7,2.3,3.4,2.7V37c0,0.3,0.1,0.5,0.3,0.6C14,39.4,18,40.4,22,40.4c4,0,8-0.9,10.9-2.7
		c0.2-0.1,0.3-0.4,0.3-0.6v-6.6c0.8-0.4,2.4-1.4,3.9-2.9C39.9,24.8,40.6,21.9,39.1,19.1z M32.7,36.4c-0.1,0.2-0.4,0.4-0.7,0.4
		c-0.1,0-0.3,0-0.4-0.1c-5-2.9-14.2-2.9-19.3,0c-0.4,0.2-0.8,0.1-1-0.3c-0.2-0.4-0.1-0.8,0.3-1c5.4-3.1,15.3-3.1,20.7,0
		C32.7,35.6,32.9,36,32.7,36.4z M32.7,32.9c-0.1,0.2-0.4,0.4-0.7,0.4c-0.1,0-0.3,0-0.4-0.1c-5-2.9-14.2-2.9-19.3,0
		c-0.4,0.2-0.8,0.1-1-0.3c-0.2-0.4-0.1-0.8,0.3-1c5.4-3.1,15.3-3.1,20.7,0C32.7,32.1,32.9,32.5,32.7,32.9z M32.3,29.7
		c-0.2,0.1-0.4,0.1-0.6,0c0,0,0,0,0,0c-5-2.9-14.2-2.9-19.3,0c0,0,0,0,0,0c-0.1,0-0.1,0.1-0.2,0.1c0,0-0.1,0-0.1,0c0,0,0,0-0.1,0
		c0,0-0.1,0-0.1,0c-0.1,0-0.1,0-0.2,0c0,0,0,0-0.1,0c-2.8-1.3-7.6-5.1-5.4-10.1c1.1-2.3,3.2-3.4,6-3.3c4,0.2,8.2,2.9,10.2,6.5
		c1.9-3.4,5.6-6,9.3-6.4c2.9-0.3,5.3,0.8,6.9,3.1c0,0,0,0.1,0.1,0.1c0.6,1.5,0.7,3,0.1,4.4C37.4,27.6,32.5,29.6,32.3,29.7z"/>
</g>
</svg>
