<?xml version="1.0" encoding="utf-8"?>
<!-- Generator: Adobe Illustrator 22.1.0, SVG Export Plug-In . SVG Version: 6.00 Build 0)  -->
<svg version="1.1" id="Layer_1" xmlns="http://www.w3.org/2000/svg" xmlns:xlink="http://www.w3.org/1999/xlink" x="0px" y="0px"
	 viewBox="0 0 45 45" style="enable-background:new 0 0 45 45;" xml:space="preserve">
<path d="M22.7,9.3c-0.1-1.3-0.4-3.1-1.7-3.1c-0.1,0-0.3,0-0.4,0.1c-1.4,0.8-2.2,2.2-2.6,2.9h-1.1c-0.5-0.9-1.7-2.5-2.8-2.7
	C13.7,6.5,13.3,6.7,13,7c-0.1,0.1-0.2,0.3-0.2,0.5c0,0.2,0,0.4,0,0.5c0,0.8-0.1,1.7,0.5,2.6c-0.2,1-1.3,2.3-1.8,2.8
	c0,0-0.1,0.1-0.1,0.1c-1,1.7-6.1,10.3-6.1,12.4c0,1.9,0.4,3.3,1.3,4.1c1,0.9,2.3,0.8,3.1,0.7c0.2,0,0.3,0,0.4,0
	c0.1,0.3,0.2,0.6,0.5,0.8c0.1,0.1,0.2,0.2,0.4,0.2C12.6,32,13.3,31,14,30c0.6-0.7,1.2-1.6,2.4-2.4c0.7-0.5,3.9-2.6,6.1-5
	c-0.3,4.6-2.3,6.5-4.3,8.4c-1.9,1.9-4,3.8-4,8c0,0.4,0.3,0.8,0.8,0.8h23c0.4,0,0.7-0.3,0.8-0.7C39.2,19.7,34.4,10.7,22.7,9.3z
	 M9,26.8c-0.7,0-1.3-0.6-1.3-1.3s0.6-1.3,1.3-1.3s1.3,0.6,1.3,1.3S9.7,26.8,9,26.8z M15.6,16.1C15.6,16.1,15.6,16.1,15.6,16.1
	c-0.5,0.9-1.2,1.5-1.7,1.5c-0.2,0-0.3,0-0.5-0.1c-0.2-0.1-0.4-0.3-0.4-0.6c-0.2-0.7,0.3-1.6,0.5-2c0.7-1.2,1.5-1.7,2.2-1.3
	c0.2,0.1,0.4,0.3,0.4,0.6C16.3,14.8,15.8,15.8,15.6,16.1z M37.5,39l0,0.5h-2.3l0-0.5c0.5-9.9-0.5-16-2.8-20.3S27.8,13,24.6,12
	l-0.5-0.2l0.5-1.4l0.5,0.1c3.4,0.5,6.8,2.7,9.2,7.2C36.6,22.2,38,28.9,37.5,39z"/>
</svg>
