<svg xmlns="http://www.w3.org/2000/svg" width="945" height="1116" viewBox="0 0 945 1116">
  <metadata><?xpacket begin="﻿" id="W5M0MpCehiHzreSzNTczkc9d"?>
<x:xmpmeta xmlns:x="adobe:ns:meta/" x:xmptk="Adobe XMP Core 5.6-c142 79.160924, 2017/07/13-01:06:39        ">
   <rdf:RDF xmlns:rdf="http://www.w3.org/1999/02/22-rdf-syntax-ns#">
      <rdf:Description rdf:about=""/>
   </rdf:RDF>
</x:xmpmeta>
                                                                                                    
                                                                                                    
                                                                                                    
                                                                                                    
                                                                                                    
                                                                                                    
                                                                                                    
                                                                                                    
                                                                                                    
                                                                                                    
                                                                                                    
                                                                                                    
                                                                                                    
                                                                                                    
                                                                                                    
                                                                                                    
                                                                                                    
                                                                                                    
                                                                                                    
                                                                                                    
                           
<?xpacket end="w"?></metadata>
<defs>
    <style>
      .cls-1 {
        fill: #edf5e0;
      }

      .cls-2 {
        font-size: 52px;
        fill: #101010;
        text-anchor: middle;
        font-family: Axis;
        font-weight: 700;
      }

      .cls-3, .cls-8 {
        fill: #8de4af;
      }

      .cls-3, .cls-4, .cls-5, .cls-6, .cls-7, .cls-8 {
        fill-rule: evenodd;
      }

      .cls-4, .cls-6 {
        fill: #5cdb94;
      }

      .cls-5, .cls-7 {
        fill: #389583;
      }

      .cls-6, .cls-7, .cls-8 {
        opacity: 0.34;
      }
    </style>
  </defs>
  <g id="Artboard_1" data-name="Artboard 1">
    <rect id="Rechthoek_1" data-name="Rechthoek 1" class="cls-1" x="-483" y="-75" width="2083" height="1242"/>
    <text id="f" class="cls-2" x="472.06" y="1097.408">f</text>
    <g>
      <path id="Polygon_1" data-name="Polygon 1" class="cls-3" d="M886.075,926l21.837-38h43.675l21.837,38-21.837,38H907.912Z" transform="translate(-459 -190)"/>
      <path id="Polygon_1_copy" data-name="Polygon 1 copy" class="cls-4" d="M886.437,1014l21.843-38h43.688l21.843,38-21.843,38H908.28Z" transform="translate(-459 -190)"/>
      <path id="Polygon_1_copy_2" data-name="Polygon 1 copy 2" class="cls-5" d="M958.831,970l21.837-38h43.672l21.84,38-21.84,38H980.668Z" transform="translate(-459 -190)"/>
      <path id="Polygon_1_copy_3" data-name="Polygon 1 copy 3" class="cls-4" d="M959.214,882l21.843-38h43.683l21.85,38-21.85,38H981.057Z" transform="translate(-459 -190)"/>
      <path id="Polygon_1_copy_4" data-name="Polygon 1 copy 4" class="cls-5" d="M886.075,838l21.837-38h43.675l21.837,38-21.837,38H907.912Z" transform="translate(-459 -190)"/>
      <path id="Polygon_1_copy_5" data-name="Polygon 1 copy 5" class="cls-4" d="M813.659,882L835.5,844H879.19l21.843,38L879.19,920H835.5Z" transform="translate(-459 -190)"/>
      <path id="Polygon_1_copy_6" data-name="Polygon 1 copy 6" class="cls-5" d="M813.32,970l21.837-38h43.674l21.837,38-21.837,38H835.157Z" transform="translate(-459 -190)"/>
      <path id="Polygon_1_copy_8" data-name="Polygon 1 copy 8" class="cls-6" d="M886.437,750l21.843-38h43.688l21.843,38-21.843,38H908.28Z" transform="translate(-459 -190)"/>
      <path id="Polygon_1_copy_8-2" data-name="Polygon 1 copy 8" class="cls-3" d="M958.831,794l21.837-38h43.672l21.84,38-21.84,38H980.668Z" transform="translate(-459 -190)"/>
      <path id="Polygon_1_copy_8-3" data-name="Polygon 1 copy 8" class="cls-7" d="M958.831,706l21.837-38h43.672l21.84,38-21.84,38H980.668Z" transform="translate(-459 -190)"/>
      <path id="Polygon_1_copy_8-4" data-name="Polygon 1 copy 8" class="cls-3" d="M886.075,662l21.837-38h43.675l21.837,38-21.837,38H907.912Z" transform="translate(-459 -190)"/>
      <path id="Polygon_1_copy_8-5" data-name="Polygon 1 copy 8" class="cls-7" d="M813.32,706l21.837-38h43.674l21.837,38-21.837,38H835.157Z" transform="translate(-459 -190)"/>
      <path id="Polygon_1_copy_8-6" data-name="Polygon 1 copy 8" class="cls-3" d="M813.32,794l21.837-38h43.674l21.837,38-21.837,38H835.157Z" transform="translate(-459 -190)"/>
      <path id="Polygon_1_copy_9" data-name="Polygon 1 copy 9" class="cls-5" d="M886.075,574l21.837-38h43.675l21.837,38-21.837,38H907.912Z" transform="translate(-459 -190)"/>
      <path id="Polygon_1_copy_9-2" data-name="Polygon 1 copy 9" class="cls-4" d="M959.214,618l21.843-38h43.683l21.85,38-21.85,38H981.057Z" transform="translate(-459 -190)"/>
      <path id="Polygon_1_copy_9-3" data-name="Polygon 1 copy 9" class="cls-3" d="M958.831,530l21.837-38h43.672l21.84,38-21.84,38H980.668Z" transform="translate(-459 -190)"/>
      <path id="Polygon_1_copy_9-4" data-name="Polygon 1 copy 9" class="cls-4" d="M886.437,486l21.843-38h43.688l21.843,38-21.843,38H908.28Z" transform="translate(-459 -190)"/>
      <path id="Polygon_1_copy_9-5" data-name="Polygon 1 copy 9" class="cls-3" d="M813.32,530l21.837-38h43.674l21.837,38-21.837,38H835.157Z" transform="translate(-459 -190)"/>
      <path id="Polygon_1_copy_9-6" data-name="Polygon 1 copy 9" class="cls-4" d="M813.659,618L835.5,580H879.19l21.843,38L879.19,656H835.5Z" transform="translate(-459 -190)"/>
      <path id="Polygon_1_copy_9-7" data-name="Polygon 1 copy 9" class="cls-3" d="M886.075,398l21.837-38h43.675l21.837,38-21.837,38H907.912Z" transform="translate(-459 -190)"/>
      <path id="Polygon_1_copy_9-8" data-name="Polygon 1 copy 9" class="cls-5" d="M958.831,442l21.837-38h43.672l21.84,38-21.84,38H980.668Z" transform="translate(-459 -190)"/>
      <path id="Polygon_1_copy_9-9" data-name="Polygon 1 copy 9" class="cls-4" d="M959.214,354l21.843-38h43.683l21.85,38-21.85,38H981.057Z" transform="translate(-459 -190)"/>
      <path id="Polygon_1_copy_9-10" data-name="Polygon 1 copy 9" class="cls-5" d="M886.075,310l21.837-38h43.675l21.837,38-21.837,38H907.912Z" transform="translate(-459 -190)"/>
      <path id="Polygon_1_copy_9-11" data-name="Polygon 1 copy 9" class="cls-4" d="M813.659,354L835.5,316H879.19l21.843,38L879.19,392H835.5Z" transform="translate(-459 -190)"/>
      <path id="Polygon_1_copy_9-12" data-name="Polygon 1 copy 9" class="cls-5" d="M813.32,442l21.837-38h43.674l21.837,38-21.837,38H835.157Z" transform="translate(-459 -190)"/>
      <path id="Polygon_1_copy_7" data-name="Polygon 1 copy 7" class="cls-5" d="M886.075,1102l21.837-38h43.675l21.837,38-21.837,38H907.912Z" transform="translate(-459 -190)"/>
      <path id="Polygon_1_copy_7-2" data-name="Polygon 1 copy 7" class="cls-3" d="M886.075,1190l21.837-38h43.675l21.837,38-21.837,38H907.912Z" transform="translate(-459 -190)"/>
      <path id="Polygon_1_copy_7-3" data-name="Polygon 1 copy 7" class="cls-4" d="M959.214,1146l21.843-38h43.683l21.85,38-21.85,38H981.057Z" transform="translate(-459 -190)"/>
      <path id="Polygon_1_copy_7-4" data-name="Polygon 1 copy 7" class="cls-3" d="M958.831,1058l21.837-38h43.672l21.84,38-21.84,38H980.668Z" transform="translate(-459 -190)"/>
      <path id="Polygon_1_copy_10" data-name="Polygon 1 copy 10" class="cls-3" d="M1031.59,926l21.83-38h43.68l21.83,38-21.83,38h-43.68Z" transform="translate(-459 -190)"/>
      <path id="Polygon_1_copy_10-2" data-name="Polygon 1 copy 10" class="cls-4" d="M1031.99,1014l21.85-38h43.68l21.85,38-21.85,38h-43.68Z" transform="translate(-459 -190)"/>
      <path id="Polygon_1_copy_10-3" data-name="Polygon 1 copy 10" class="cls-5" d="M1104.34,970l21.84-38h43.67l21.84,38-21.84,38h-43.67Z" transform="translate(-459 -190)"/>
      <path id="Polygon_1_copy_10-4" data-name="Polygon 1 copy 10" class="cls-4" d="M1104.77,882l21.84-38h43.69l21.84,38-21.84,38h-43.69Z" transform="translate(-459 -190)"/>
      <path id="Polygon_1_copy_10-5" data-name="Polygon 1 copy 10" class="cls-5" d="M1031.59,838l21.83-38h43.68l21.83,38-21.83,38h-43.68Z" transform="translate(-459 -190)"/>
      <path id="Polygon_1_copy_10-6" data-name="Polygon 1 copy 10" class="cls-4" d="M1031.99,750l21.85-38h43.68l21.85,38-21.85,38h-43.68Z" transform="translate(-459 -190)"/>
      <path id="Polygon_1_copy_10-7" data-name="Polygon 1 copy 10" class="cls-3" d="M1104.34,794l21.84-38h43.67l21.84,38-21.84,38h-43.67Z" transform="translate(-459 -190)"/>
      <path id="Polygon_1_copy_10-8" data-name="Polygon 1 copy 10" class="cls-5" d="M1104.34,706l21.84-38h43.67l21.84,38-21.84,38h-43.67Z" transform="translate(-459 -190)"/>
      <path id="Polygon_1_copy_10-9" data-name="Polygon 1 copy 10" class="cls-8" d="M1031.59,662l21.83-38h43.68l21.83,38-21.83,38h-43.68Z" transform="translate(-459 -190)"/>
      <path id="Polygon_1_copy_10-10" data-name="Polygon 1 copy 10" class="cls-5" d="M1031.59,574l21.83-38h43.68l21.83,38-21.83,38h-43.68Z" transform="translate(-459 -190)"/>
      <path id="Polygon_1_copy_10-11" data-name="Polygon 1 copy 10" class="cls-6" d="M1104.77,618l21.84-38h43.69l21.84,38-21.84,38h-43.69Z" transform="translate(-459 -190)"/>
      <path id="Polygon_1_copy_10-12" data-name="Polygon 1 copy 10" class="cls-3" d="M1104.34,530l21.84-38h43.67l21.84,38-21.84,38h-43.67Z" transform="translate(-459 -190)"/>
      <path id="Polygon_1_copy_10-13" data-name="Polygon 1 copy 10" class="cls-4" d="M1031.99,486l21.85-38h43.68l21.85,38-21.85,38h-43.68Z" transform="translate(-459 -190)"/>
      <path id="Polygon_1_copy_10-14" data-name="Polygon 1 copy 10" class="cls-3" d="M1031.59,398l21.83-38h43.68l21.83,38-21.83,38h-43.68Z" transform="translate(-459 -190)"/>
      <path id="Polygon_1_copy_10-15" data-name="Polygon 1 copy 10" class="cls-5" d="M1104.34,442l21.84-38h43.67l21.84,38-21.84,38h-43.67Z" transform="translate(-459 -190)"/>
      <path id="Polygon_1_copy_10-16" data-name="Polygon 1 copy 10" class="cls-5" d="M1031.59,1102l21.83-38h43.68l21.83,38-21.83,38h-43.68Z" transform="translate(-459 -190)"/>
      <path id="Polygon_1_copy_10-17" data-name="Polygon 1 copy 10" class="cls-3" d="M1104.34,1058l21.84-38h43.67l21.84,38-21.84,38h-43.67Z" transform="translate(-459 -190)"/>
      <path id="Polygon_1_copy_11" data-name="Polygon 1 copy 11" class="cls-5" d="M1177.1,838l21.84-38h43.67l21.84,38-21.84,38h-43.67Z" transform="translate(-459 -190)"/>
      <path id="Polygon_1_copy_11-2" data-name="Polygon 1 copy 11" class="cls-3" d="M1177.1,926l21.84-38h43.67l21.84,38-21.84,38h-43.67Z" transform="translate(-459 -190)"/>
      <path id="Polygon_1_copy_11-3" data-name="Polygon 1 copy 11" class="cls-4" d="M1250.33,882l21.84-38h43.69l21.84,38-21.84,38h-43.69Z" transform="translate(-459 -190)"/>
      <path id="Polygon_1_copy_11-4" data-name="Polygon 1 copy 11" class="cls-3" d="M1249.85,794l21.84-38h43.67l21.84,38-21.84,38h-43.67Z" transform="translate(-459 -190)"/>
      <path id="Polygon_1_copy_11-5" data-name="Polygon 1 copy 11" class="cls-4" d="M1177.55,750l21.84-38h43.69l21.84,38-21.84,38h-43.69Z" transform="translate(-459 -190)"/>
      <path id="Polygon_1_copy_11-6" data-name="Polygon 1 copy 11" class="cls-3" d="M1177.1,662l21.84-38h43.67l21.84,38-21.84,38h-43.67Z" transform="translate(-459 -190)"/>
      <path id="Polygon_1_copy_11-7" data-name="Polygon 1 copy 11" class="cls-5" d="M1249.85,706l21.84-38h43.67l21.84,38-21.84,38h-43.67Z" transform="translate(-459 -190)"/>
      <path id="Polygon_1_copy_11-8" data-name="Polygon 1 copy 11" class="cls-4" d="M1250.33,618l21.84-38h43.69l21.84,38-21.84,38h-43.69Z" transform="translate(-459 -190)"/>
      <path id="Polygon_1_copy_11-9" data-name="Polygon 1 copy 11" class="cls-7" d="M1177.1,574l21.84-38h43.67l21.84,38-21.84,38h-43.67Z" transform="translate(-459 -190)"/>
      <path id="Polygon_1_copy_11-10" data-name="Polygon 1 copy 11" class="cls-4" d="M1177.55,486l21.84-38h43.69l21.84,38-21.84,38h-43.69Z" transform="translate(-459 -190)"/>
      <path id="Polygon_1_copy_11-11" data-name="Polygon 1 copy 11" class="cls-8" d="M1249.85,530l21.84-38h43.67l21.84,38-21.84,38h-43.67Z" transform="translate(-459 -190)"/>
      <path id="Polygon_1_copy_11-12" data-name="Polygon 1 copy 11" class="cls-4" d="M1177.55,1014l21.84-38h43.69l21.84,38-21.84,38h-43.69Z" transform="translate(-459 -190)"/>
      <path id="Polygon_1_copy_11-13" data-name="Polygon 1 copy 11" class="cls-5" d="M1249.85,970l21.84-38h43.67l21.84,38-21.84,38h-43.67Z" transform="translate(-459 -190)"/>
      <path id="Polygon_1_copy_7-5" data-name="Polygon 1 copy 7" class="cls-3" d="M813.32,1058l21.837-38h43.674l21.837,38-21.837,38H835.157Z" transform="translate(-459 -190)"/>
      <path id="Polygon_1_copy_12" data-name="Polygon 1 copy 12" class="cls-4" d="M740.881,1014l21.844-38h43.688l21.843,38-21.843,38H762.725Z" transform="translate(-459 -190)"/>
      <path id="Polygon_1_copy_12-2" data-name="Polygon 1 copy 12" class="cls-5" d="M740.564,1102l21.837-38h43.674l21.837,38-21.837,38H762.4Z" transform="translate(-459 -190)"/>
      <path id="Polygon_1_copy_12-3" data-name="Polygon 1 copy 12" class="cls-3" d="M740.564,926L762.4,888h43.674l21.837,38-21.837,38H762.4Z" transform="translate(-459 -190)"/>
      <path id="Polygon_1_copy_12-4" data-name="Polygon 1 copy 12" class="cls-5" d="M667.809,970l21.837-38H733.32l21.837,38-21.837,38H689.646Z" transform="translate(-459 -190)"/>
      <path id="Polygon_1_copy_12-5" data-name="Polygon 1 copy 12" class="cls-3" d="M667.809,1058l21.837-38H733.32l21.837,38-21.837,38H689.646Z" transform="translate(-459 -190)"/>
      <path id="Polygon_1_copy_12-6" data-name="Polygon 1 copy 12" class="cls-5" d="M740.564,838L762.4,800h43.674l21.837,38-21.837,38H762.4Z" transform="translate(-459 -190)"/>
      <path id="Polygon_1_copy_12-7" data-name="Polygon 1 copy 12" class="cls-4" d="M740.881,750l21.844-38h43.688l21.843,38-21.843,38H762.725Z" transform="translate(-459 -190)"/>
      <path id="Polygon_1_copy_12-8" data-name="Polygon 1 copy 12" class="cls-3" d="M667.809,794l21.837-38H733.32l21.837,38L733.32,832H689.646Z" transform="translate(-459 -190)"/>
      <path id="Polygon_1_copy_12-9" data-name="Polygon 1 copy 12" class="cls-4" d="M668.1,882l21.844-38h43.688l21.843,38-21.843,38H689.947Z" transform="translate(-459 -190)"/>
      <path id="Polygon_1_copy_12-10" data-name="Polygon 1 copy 12" class="cls-8" d="M740.564,662L762.4,624h43.674l21.837,38-21.837,38H762.4Z" transform="translate(-459 -190)"/>
      <path id="Polygon_1_copy_12-11" data-name="Polygon 1 copy 12" class="cls-5" d="M740.564,574L762.4,536h43.674l21.837,38-21.837,38H762.4Z" transform="translate(-459 -190)"/>
      <path id="Polygon_1_copy_12-12" data-name="Polygon 1 copy 12" class="cls-6" d="M668.1,618l21.844-38h43.688l21.843,38-21.843,38H689.947Z" transform="translate(-459 -190)"/>
      <path id="Polygon_1_copy_12-13" data-name="Polygon 1 copy 12" class="cls-5" d="M667.809,706l21.837-38H733.32l21.837,38L733.32,744H689.646Z" transform="translate(-459 -190)"/>
      <path id="Polygon_1_copy_12-14" data-name="Polygon 1 copy 12" class="cls-4" d="M740.881,486l21.844-38h43.688l21.843,38-21.843,38H762.725Z" transform="translate(-459 -190)"/>
      <path id="Polygon_1_copy_12-15" data-name="Polygon 1 copy 12" class="cls-3" d="M740.564,398L762.4,360h43.674l21.837,38-21.837,38H762.4Z" transform="translate(-459 -190)"/>
      <path id="Polygon_1_copy_12-16" data-name="Polygon 1 copy 12" class="cls-5" d="M667.809,442l21.837-38H733.32l21.837,38L733.32,480H689.646Z" transform="translate(-459 -190)"/>
      <path id="Polygon_1_copy_12-17" data-name="Polygon 1 copy 12" class="cls-3" d="M667.809,530l21.837-38H733.32l21.837,38L733.32,568H689.646Z" transform="translate(-459 -190)"/>
      <path id="Polygon_1_copy_13" data-name="Polygon 1 copy 13" class="cls-4" d="M595.325,1014l21.844-38h43.688l21.843,38-21.843,38H617.169Z" transform="translate(-459 -190)"/>
      <path id="Polygon_1_copy_13-2" data-name="Polygon 1 copy 13" class="cls-3" d="M595.053,926l21.837-38h43.674L682.4,926l-21.837,38H616.89Z" transform="translate(-459 -190)"/>
      <path id="Polygon_1_copy_13-3" data-name="Polygon 1 copy 13" class="cls-5" d="M595.053,838l21.837-38h43.674L682.4,838l-21.837,38H616.89Z" transform="translate(-459 -190)"/>
      <path id="Polygon_1_copy_13-4" data-name="Polygon 1 copy 13" class="cls-4" d="M522.547,882l21.844-38h43.688l21.843,38-21.843,38H544.391Z" transform="translate(-459 -190)"/>
      <path id="Polygon_1_copy_13-5" data-name="Polygon 1 copy 13" class="cls-5" d="M522.3,970l21.836-38h43.675l21.837,38-21.837,38H544.134Z" transform="translate(-459 -190)"/>
      <path id="Polygon_1_copy_13-6" data-name="Polygon 1 copy 13" class="cls-4" d="M595.325,750l21.844-38h43.688L682.7,750l-21.843,38H617.169Z" transform="translate(-459 -190)"/>
      <path id="Polygon_1_copy_13-7" data-name="Polygon 1 copy 13" class="cls-3" d="M595.053,662l21.837-38h43.674L682.4,662l-21.837,38H616.89Z" transform="translate(-459 -190)"/>
      <path id="Polygon_1_copy_13-8" data-name="Polygon 1 copy 13" class="cls-5" d="M522.3,706l21.836-38h43.675l21.837,38-21.837,38H544.134Z" transform="translate(-459 -190)"/>
      <path id="Polygon_1_copy_13-9" data-name="Polygon 1 copy 13" class="cls-3" d="M522.3,794l21.836-38h43.675l21.837,38-21.837,38H544.134Z" transform="translate(-459 -190)"/>
      <path id="Polygon_1_copy_13-10" data-name="Polygon 1 copy 13" class="cls-7" d="M595.053,574l21.837-38h43.674L682.4,574l-21.837,38H616.89Z" transform="translate(-459 -190)"/>
      <path id="Polygon_1_copy_13-11" data-name="Polygon 1 copy 13" class="cls-4" d="M595.325,486l21.844-38h43.688L682.7,486l-21.843,38H617.169Z" transform="translate(-459 -190)"/>
      <path id="Polygon_1_copy_13-12" data-name="Polygon 1 copy 13" class="cls-8" d="M522.3,530l21.836-38h43.675l21.837,38-21.837,38H544.134Z" transform="translate(-459 -190)"/>
      <path id="Polygon_1_copy_13-13" data-name="Polygon 1 copy 13" class="cls-4" d="M522.547,618l21.844-38h43.688l21.843,38-21.843,38H544.391Z" transform="translate(-459 -190)"/>
      <path id="Polygon_1_copy_7-6" data-name="Polygon 1 copy 7" class="cls-4" d="M813.659,1146l21.843-38H879.19l21.843,38-21.843,38H835.5Z" transform="translate(-459 -190)"/>
    </g>
    <text id="a" class="cls-2" x="107.636" y="875.499">a</text>
    <text id="b" class="cls-2" x="178.636" y="923.5">b</text>
    <text id="c" class="cls-2" x="253.092" y="964.635">c</text>
    <text id="d" class="cls-2" x="323.82" y="1012.463">d</text>
    <text id="e" class="cls-2" x="397.044" y="1051.507">e</text>
    <text id="f6" class="cls-2" x="470.059" y="578.408">f6</text>
    <text id="g" class="cls-2" x="543.931" y="1044.318">g</text>
    <text id="h" class="cls-2" x="615.42" y="1011.346">h</text>
    <text id="i" class="cls-2" x="686.933" y="969.683">i</text>
    <text id="_7" data-name="7" class="cls-2" x="107.124" y="272.221">7</text>
    <text id="_8" data-name="8" class="cls-2" x="180.02" y="228.204">8</text>
    <text id="_9" data-name="9" class="cls-2" x="253.013" y="185.16">9</text>
    <text id="_10" data-name="10" class="cls-2" x="325.164" y="140.976">10</text>
    <text id="_11" data-name="11" class="cls-2" x="398.347" y="99.151">11</text>
    <text id="_1_kopiëren" data-name="1 kopiëren" class="cls-2" transform="translate(909.657 756.421)">1</text>
    <text id="_2_kopiëren" data-name="2 kopiëren" class="cls-2" transform="translate(909.401 668.325)">2</text>
    <text id="_3_kopiëren" data-name="3 kopiëren" class="cls-2" transform="translate(909.762 580.321)">3</text>
    <text id="_4_kopiëren" data-name="4 kopiëren" class="cls-2" transform="translate(911.001 492.127)">4</text>
    <text id="_5_kopiëren" data-name="5 kopiëren" class="cls-2" transform="translate(910.738 404.172)">5</text>
    <text id="_6_kopiëren" data-name="6 kopiëren" class="cls-2" transform="translate(909.785 316.38)">6</text>
    <text id="_7_kopiëren" data-name="7 kopiëren" class="cls-2" transform="translate(836.148 272.343)">7</text>
    <text id="_8_kopiëren" data-name="8 kopiëren" class="cls-2" transform="translate(763.293 228.33)">8</text>
    <text id="_9_kopiëren" data-name="9 kopiëren" class="cls-2" transform="translate(690.343 185.293)">9</text>
    <text id="_10_kopiëren" data-name="10 kopiëren" class="cls-2" transform="translate(618.231 141.113)">10</text>
    <text id="_11_kopiëren" data-name="11 kopiëren" class="cls-2" transform="translate(545.089 99.294)">11</text>
    <text id="j" class="cls-2" x="761.924" y="918.356">j</text>
    <text id="k" class="cls-2" x="835.796" y="880.313">k</text>
    <text id="_1" data-name="1" class="cls-2" x="33.572" y="756.36">1</text>
    <text id="_2" data-name="2" class="cls-2" x="33.828" y="668.251">2</text>
    <text id="_3" data-name="3" class="cls-2" x="33.468" y="580.237">3</text>
    <text id="_4" data-name="4" class="cls-2" x="32.228" y="492.033">4</text>
    <text id="_5" data-name="5" class="cls-2" x="32.491" y="404.067">5</text>
    <text id="_6" data-name="6" class="cls-2" x="33.444" y="316.264">6</text>
  </g>
</svg>
