<svg id="Layer_1" data-name="Layer 1" xmlns="http://www.w3.org/2000/svg" viewBox="0 0 408.92 390.24"><defs><style>.cls-1{fill:#97d1aa;}.cls-1,.cls-2,.cls-3{stroke:#231f20;stroke-linejoin:round;stroke-width:8px;}.cls-2{fill:#389583;}.cls-3{fill:#70c48e;}</style></defs><title>logo</title><polygon class="cls-1" points="364 159.68 343.54 195.12 277.21 80.24 255.2 42.12 71.88 42.12 71.88 42.11 134.8 4 274.12 4 296.12 42.12 318.13 80.24 364 159.68"/><polygon class="cls-2" points="404.92 159.68 364 230.56 318.13 310 277.21 310 343.54 195.12 364 159.68 318.13 80.24 296.12 42.12 274.12 4 337.05 42.12 359.06 80.24 384.46 124.24 404.92 159.68"/><polygon class="cls-3" points="277.21 80.24 90.79 80.24 44.92 159.68 4 230.56 4 159.68 24.46 124.24 49.87 80.24 71.87 42.12 255.2 42.12 277.21 80.24"/><polygon class="cls-2" points="134.8 386.24 71.87 348.12 49.86 310 24.46 266 4 230.56 44.92 159.68 90.79 80.24 131.71 80.24 65.38 195.12 44.92 230.56 90.79 310 112.8 348.12 134.8 386.24"/><polygon class="cls-1" points="337.04 348.12 337.04 348.13 274.12 386.24 134.8 386.24 112.8 348.12 90.79 310 44.92 230.56 65.38 195.12 131.71 310 153.72 348.12 337.04 348.12"/><polygon class="cls-3" points="404.92 159.68 404.92 230.56 384.46 266 359.05 310 337.05 348.12 153.72 348.12 131.71 310 318.13 310 364 230.56 404.92 159.68"/></svg>