<?xml version="1.0" encoding="utf-8"?>
<!-- Generator: Adobe Illustrator 22.1.0, SVG Export Plug-In . SVG Version: 6.00 Build 0)  -->
<svg version="1.1" id="Layer_1" xmlns="http://www.w3.org/2000/svg" xmlns:xlink="http://www.w3.org/1999/xlink" x="0px" y="0px"
	 viewBox="0 0 45 45" style="enable-background:new 0 0 45 45;" xml:space="preserve">
<path d="M27.9,24.1c1.2-1.3,1.8-3,1.8-4.8c0-2.3-1.1-4.5-3-5.9c0.3-0.7,0.5-1.4,0.5-2.1c0-2.6-2.1-4.8-4.8-4.8s-4.8,2.1-4.8,4.8
	c0,0.8,0.2,1.5,0.5,2.1c-1.9,1.4-3,3.5-3,5.9c0,1.8,0.7,3.5,1.8,4.8c-3.1,1.7-6.8,6.2-6.8,13.7v0.8h24.5v-0.8
	C34.8,30.3,31,25.7,27.9,24.1z"/>
</svg>
