<?xml version="1.0" encoding="utf-8"?>
<!-- Generator: Adobe Illustrator 22.1.0, SVG Export Plug-In . SVG Version: 6.00 Build 0)  -->
<svg version="1.1" id="Layer_1" xmlns="http://www.w3.org/2000/svg" xmlns:xlink="http://www.w3.org/1999/xlink" x="0px" y="0px"
	 viewBox="0 0 45 45" style="enable-background:new 0 0 45 45;" xml:space="preserve">
<path d="M39,9.3c-1.5,0-2.8,1.2-2.8,2.8c0,0.8,0.4,1.6,1,2.1l-5.5,8.5l-0.2-10.9c1.3-0.2,2.3-1.3,2.3-2.7c0-1.5-1.2-2.8-2.8-2.8
	S28.3,7.5,28.3,9c0,1,0.6,1.9,1.5,2.4l-4,10.4l-2.3-11.2c1.1-0.4,1.9-1.4,1.9-2.6c0-1.5-1.2-2.8-2.8-2.8S19.8,6.5,19.8,8
	c0,1.2,0.8,2.2,1.9,2.6l-2.3,11.2l-4-10.4c0.9-0.5,1.5-1.4,1.5-2.4c0-1.5-1.2-2.8-2.8-2.8S11.3,7.5,11.3,9c0,1.4,1,2.5,2.3,2.7
	l-0.2,10.9l-5.5-8.5c0.6-0.5,1-1.2,1-2.1c0-1.5-1.2-2.8-2.8-2.8S3.3,10.5,3.3,12c0,1.5,1.2,2.7,2.7,2.7l2.3,11.4
	c0,1.4,0.7,2.1,1.4,2.7c0.4,0.4,0.9,0.8,1.3,1.6c0.1,0.2,0.3,0.4,0.4,0.5c0.4,0.6,0.4,0.6,0.1,1.9l0,0.2c-1.2,0.9-1.5,2.1-1.5,2.6
	c-0.6,0.7-0.6,1.3-0.6,1.7c0.2,1.1,1.3,1.7,1.4,1.8c0,0,0.1,0,0.1,0l0,0c3.8,1.3,7.8,2,11.7,2c4,0,8-0.7,11.7-2l0,0
	c0.1,0,0.1,0,0.2-0.1c0.1-0.1,0.9-0.6,1-1.6c0.1-0.6-0.1-1.2-0.6-1.7c0.1-0.7-0.1-1.9-1.1-2.7l0-0.2c-0.3-1.3-0.3-1.3,0.1-1.9
	c0.1-0.1,0.2-0.3,0.4-0.6c0.4-0.7,0.8-1.1,1.2-1.5c0.6-0.6,1.3-1.3,1.4-2.7L39,14.7c1.5,0,2.7-1.2,2.7-2.7
	C41.8,10.5,40.5,9.3,39,9.3z M34.3,37.2c0.1,0.4-0.1,0.8-0.4,1c-3.7,1.4-7.6,2.2-11.5,2.2s-7.8-0.7-11.5-2.2c-0.4-0.1-0.6-0.6-0.4-1
	c0.1-0.4,0.5-0.6,0.9-0.4c7.1,2.8,15,2.8,22.1,0C33.8,36.7,34.2,36.9,34.3,37.2z M33.5,34.3c0.1,0.4-0.1,0.8-0.4,0.9
	c-3.4,1.2-7,1.8-10.5,1.8c-3.6,0-7.1-0.6-10.5-1.8c-0.4-0.1-0.6-0.6-0.4-0.9c0.1-0.4,0.5-0.6,0.9-0.5c6.5,2.3,13.7,2.3,20.2,0
	C32.9,33.7,33.3,33.9,33.5,34.3z M12.2,31.5c0-0.4,0.3-0.8,0.7-0.8H32c0.4,0,0.7,0.3,0.7,0.8s-0.3,0.8-0.7,0.8H13
	C12.6,32.3,12.2,31.9,12.2,31.5z M34,29.2c-0.1,0.4-0.5,0.6-0.9,0.5c-6.8-2.5-14.3-2.5-21.1,0c-0.1,0-0.2,0-0.2,0
	c-0.3,0-0.6-0.2-0.7-0.5c-0.1-0.4,0.1-0.8,0.4-1c7.1-2.6,14.9-2.6,22.1,0C33.9,28.4,34.1,28.9,34,29.2z"/>
</svg>
