<?xml version="1.0" encoding="utf-8"?>
<!-- Generator: Adobe Illustrator 22.1.0, SVG Export Plug-In . SVG Version: 6.00 Build 0)  -->
<svg version="1.1" id="Layer_1" xmlns="http://www.w3.org/2000/svg" xmlns:xlink="http://www.w3.org/1999/xlink" x="0px" y="0px"
	 viewBox="0 0 45 45" style="enable-background:new 0 0 45 45;" xml:space="preserve">
<path d="M36,35.3h-2.3V32c0-0.4-0.3-0.8-0.8-0.8h-0.1l-1.2-2V16.9l2.7-2.3c0,0,0,0,0,0c0,0,0,0,0.1-0.1c0,0,0.1-0.1,0.1-0.2
	c0,0,0-0.1,0-0.1c0-0.1,0-0.1,0-0.2c0,0,0,0,0,0V9c0-0.4-0.3-0.8-0.8-0.8h-4c-0.4,0-0.8,0.3-0.8,0.8v1.3h-3.5V9
	c0-0.4-0.3-0.8-0.8-0.8h-5c-0.4,0-0.8,0.3-0.8,0.8v1.3h-3.5V9c0-0.4-0.3-0.8-0.8-0.8h-4c-0.4,0-0.8,0.3-0.8,0.8v5c0,0,0,0,0,0
	c0,0.1,0,0.1,0,0.2c0,0,0,0.1,0,0.1c0,0.1,0.1,0.1,0.1,0.1c0,0,0,0,0.1,0.1c0,0,0,0,0,0l2.7,2.3v12.4l-1.2,2H12
	c-0.4,0-0.8,0.3-0.8,0.8v3.3H9c-0.4,0-0.8,0.3-0.8,0.8v3c0,0.4,0.3,0.8,0.8,0.8h27c0.4,0,0.8-0.3,0.8-0.8v-3
	C36.8,35.6,36.4,35.3,36,35.3z M11.5,14.6c-0.3,0-0.5-0.3-0.5-0.6s0.2-0.6,0.5-0.6h22c0.3,0,0.5,0.3,0.5,0.6s-0.2,0.6-0.5,0.6H11.5z
	 M30.6,17.1H14.4c-0.3,0-0.5-0.3-0.5-0.6s0.2-0.6,0.5-0.6h16.3c0.3,0,0.5,0.3,0.5,0.6S30.9,17.1,30.6,17.1z M31.1,29.5
	c0,0.3-0.2,0.6-0.5,0.6H14.4c-0.3,0-0.5-0.3-0.5-0.6s0.2-0.6,0.5-0.6h16.3C30.9,28.9,31.1,29.2,31.1,29.5z M13.4,30.9h18.2
	c0.3,0,0.5,0.3,0.5,0.6s-0.2,0.6-0.5,0.6H13.4c-0.3,0-0.5-0.3-0.5-0.6S13.1,30.9,13.4,30.9z M32.6,36.1H12.4c-0.3,0-0.5-0.3-0.5-0.6
	s0.2-0.6,0.5-0.6h20.1c0.3,0,0.5,0.3,0.5,0.6S32.8,36.1,32.6,36.1z"/>
</svg>
